<!-- Generator: Adobe Illustrator 21.0.0, SVG Export Plug-In  -->
<svg version="1.1" xmlns="http://www.w3.org/2000/svg" xmlns:xlink="http://www.w3.org/1999/xlink" xmlns:a="http://ns.adobe.com/AdobeSVGViewerExtensions/3.0/" x="0px" y="0px" width="114.289px" height="123.729px" viewBox="0 0 114.289 123.729" style="enable-background:new 0 0 114.289 123.729;" xml:space="preserve">
<style type="text/css">
	.st0{fill:url(#SVGID_1_);}
	.st1{fill:url(#SVGID_2_);}
	.st2{fill:url(#SVGID_3_);}
	.st3{fill:url(#SVGID_4_);}
	.st4{fill:#C12D2C;}
	.st5{fill:url(#SVGID_5_);}
	.st6{fill:url(#SVGID_6_);}
	.st7{fill:url(#SVGID_7_);}
	.st8{fill:url(#SVGID_8_);}
</style>
<defs>
</defs>
<g>
	
		<linearGradient id="SVGID_1_" gradientUnits="userSpaceOnUse" x1="-18.3572" y1="34.4488" x2="140.3291" y2="92.2059" gradientTransform="matrix(0.9767 0 0 0.9807 1.4844 -0.5448)">
		<stop offset="0.0351" style="stop-color:#65696B"/>
		<stop offset="0.2417" style="stop-color:#9EA4A5"/>
		<stop offset="0.4829" style="stop-color:#FFFFFF"/>
		<stop offset="0.5402" style="stop-color:#DAD9DA"/>
		<stop offset="0.6726" style="stop-color:#858586"/>
		<stop offset="0.7322" style="stop-color:#676D6F"/>
		<stop offset="0.9035" style="stop-color:#4F5252"/>
		<stop offset="1" style="stop-color:#454647"/>
	</linearGradient>
	<path class="st0" d="M56.211,101.842l-46.084-0.483c-7.79-0.557-12.631-8.695-8.772-15.23l19.567-39.931L42.418,4.475   c2.752-5.316,13.596-6.25,16.941-0.877l28.384,44.24l24.584,41.054c3.295,5.821-1.103,12.913-7.969,12.948L56.211,101.842z"/>
	<g>
		<linearGradient id="SVGID_2_" gradientUnits="userSpaceOnUse" x1="6.812" y1="91.1437" x2="84.0123" y2="46.572">
			<stop offset="0.0351" style="stop-color:#65696B"/>
			<stop offset="0.2417" style="stop-color:#9EA4A5"/>
			<stop offset="0.4829" style="stop-color:#FFFFFF"/>
			<stop offset="0.5402" style="stop-color:#DAD9DA"/>
			<stop offset="0.6726" style="stop-color:#858586"/>
			<stop offset="0.7322" style="stop-color:#676D6F"/>
			<stop offset="0.7955" style="stop-color:#64696B"/>
			<stop offset="0.8749" style="stop-color:#5B5F60"/>
			<stop offset="0.9625" style="stop-color:#4C4F4F"/>
			<stop offset="1" style="stop-color:#454647"/>
		</linearGradient>
		<path class="st1" d="M56.265,96.899l-41.24-0.386c-6.971-0.41-11.304-7.664-7.85-13.488l17.509-35.59l19.236-37.186    c2.462-4.738,12.167-5.57,15.16-0.781l25.402,39.431l22.001,36.592c2.949,5.188-0.987,11.509-7.13,11.408H56.265z"/>
		<linearGradient id="SVGID_3_" gradientUnits="userSpaceOnUse" x1="91.0898" y1="108.7003" x2="18.0976" y2="35.7081">
			<stop offset="0.0351" style="stop-color:#65696B"/>
			<stop offset="0.2417" style="stop-color:#9EA4A5"/>
			<stop offset="0.4829" style="stop-color:#FFFFFF"/>
			<stop offset="0.5402" style="stop-color:#DAD9DA"/>
			<stop offset="0.6726" style="stop-color:#858586"/>
			<stop offset="0.7322" style="stop-color:#676D6F"/>
			<stop offset="0.9035" style="stop-color:#4F5252"/>
			<stop offset="1" style="stop-color:#454647"/>
		</linearGradient>
		<path class="st2" d="M52.084,6.454c3.058,0,5.612,1.165,6.833,3.119l25.399,39.426l21.999,36.587    c1.303,2.292,1.292,5.017-0.03,7.288c-1.396,2.4-3.933,3.832-6.787,3.832c-0.047,0-0.095,0-0.146-0.001l-43.085,0l-41.23-0.386    c-3.383-0.199-6.324-2.051-7.867-4.955c-1.416-2.666-1.354-5.67,0.172-8.242l0.004-0.006l0.003-0.007l17.507-35.586L44.09,10.338    C45.298,8.015,48.51,6.454,52.084,6.454 M52.084,6.261c-3.368,0-6.83,1.421-8.165,3.988L24.683,47.435L7.175,83.025    c-3.454,5.824,0.879,13.078,7.85,13.488l41.24,0.386h43.087C99.4,96.9,99.449,96.9,99.497,96.9c6.06,0,9.91-6.262,6.985-11.409    L84.481,48.899L59.079,9.468C57.708,7.275,54.93,6.261,52.084,6.261L52.084,6.261z"/>
	</g>
	<g>
		<linearGradient id="SVGID_4_" gradientUnits="userSpaceOnUse" x1="29.9909" y1="50.3201" x2="79.2756" y2="78.7746">
			<stop offset="0.0351" style="stop-color:#65696B"/>
			<stop offset="0.2417" style="stop-color:#9EA4A5"/>
			<stop offset="0.4829" style="stop-color:#FFFFFF"/>
			<stop offset="0.5402" style="stop-color:#DAD9DA"/>
			<stop offset="0.6726" style="stop-color:#858586"/>
			<stop offset="0.7322" style="stop-color:#676D6F"/>
			<stop offset="0.9035" style="stop-color:#4F5252"/>
			<stop offset="1" style="stop-color:#454647"/>
		</linearGradient>
		<path class="st3" d="M34.887,82.95l-6.272-6.93h3.064l6.043-28.868l4.554,13.746L37.78,82.95H34.887z M48.376,69.347    L37.293,37.673l10.453,8.907l4.496,11.856L48.376,69.347z M48.376,76.907l10.74-29.755l2.807,13.746l-6.444,21.937L48.376,76.907z     M64.643,76.02h3.265l-7.904-38.175l8.735,7.217L76.7,83.236h-2.807L64.643,76.02z"/>
	</g>
	<g>
		<path class="st4" d="M6.619,121.249h1.153v-12.781l2.983,2.695v12.566h-1.31L6.619,121.249z"/>
		<path class="st4" d="M17.311,120.598c-0.091,0.02-0.212,0.032-0.363,0.032c-0.506,0-1.004-0.123-1.492-0.365    c-0.49-0.242-0.905-0.583-1.246-1.02c-0.341-0.437-0.558-0.917-0.649-1.441L17.311,120.598z M20.237,115.724    c1.044,0.762,1.812,1.492,2.304,2.195c0.492,0.703,0.738,1.457,0.738,2.258c0,0.627-0.161,1.219-0.482,1.766    c-0.321,0.548-0.77,0.984-1.344,1.306c-0.576,0.321-1.211,0.48-1.905,0.48c-0.867,0-1.754-0.278-2.659-0.837    c-0.907-0.556-1.842-1.393-2.806-2.508c0.959,0.794,1.975,1.191,3.052,1.191c0.538,0,1.046-0.091,1.522-0.278    c0.474-0.183,0.891-0.437,1.25-0.762c0.357-0.325,0.633-0.703,0.828-1.135c0.193-0.437,0.29-0.893,0.29-1.381    C21.025,117.133,20.763,116.367,20.237,115.724z M16.643,114.009c-0.762-0.171-1.336-0.445-1.719-0.83    c-0.385-0.385-0.576-0.861-0.576-1.433c0-0.46,0.139-0.897,0.419-1.31c0.278-0.413,0.657-0.742,1.137-0.984    c0.478-0.242,0.994-0.365,1.546-0.365c0.478,0,0.913,0.079,1.304,0.242c0.391,0.159,0.77,0.413,1.137,0.762l0.671-0.639    l2.155,2.274l-0.708,0.726c-0.538-0.452-1.01-0.782-1.413-0.992c-0.403-0.21-0.82-0.314-1.246-0.314    c-0.78,0-1.425,0.258-1.935,0.782C16.907,112.449,16.649,113.144,16.643,114.009z M20.197,117.764    c-0.165-0.191-0.355-0.321-0.572-0.397c-0.216-0.071-0.587-0.159-1.111-0.258c-0.526-0.103-0.953-0.214-1.28-0.341    c-0.454-0.159-0.913-0.472-1.379-0.945c-0.466-0.472-0.929-1.095-1.389-1.869c0.302,0.302,0.613,0.524,0.931,0.667    c0.32,0.147,0.671,0.258,1.06,0.337c0.387,0.079,0.754,0.147,1.101,0.206c0.5,0.083,0.927,0.222,1.28,0.417    c0.355,0.194,0.641,0.468,0.857,0.83C19.911,116.768,20.08,117.216,20.197,117.764z"/>
		<path class="st4" d="M24.009,121.249h1.024l1.655-4.116h5.406l1.014,2.441h-4.481l-1.576,4.156h-0.885L24.009,121.249z     M27.111,116.109l2.245-5.525l1.389,3.37l-0.788,2.155H27.111z M33.807,121.249h1.074l-5.545-13.146l3.407,2.759l5.426,12.868    h-1.29L33.807,121.249z"/>
		<path class="st4" d="M41.43,119.899c-0.502-0.191-0.951-0.445-1.35-0.762c-0.399-0.318-0.736-0.695-1.016-1.123    c-0.28-0.429-0.494-0.901-0.643-1.417c-0.149-0.516-0.222-1.056-0.222-1.619c0-0.834,0.151-1.611,0.454-2.334    c0.302-0.722,0.724-1.346,1.266-1.873c0.542-0.524,1.195-0.937,1.957-1.234c0.762-0.298,1.58-0.449,2.455-0.449    c1.399,0,2.687,0.425,3.864,1.27l0.56-0.905l2.256,2.62l-0.681,0.726c-0.538-0.544-1.125-0.949-1.762-1.215    c-0.637-0.266-1.326-0.401-2.068-0.401c-0.782,0-1.536,0.155-2.264,0.456c-0.728,0.302-1.369,0.722-1.921,1.262    c-0.552,0.544-0.98,1.167-1.29,1.869c-0.308,0.703-0.462,1.449-0.462,2.243C40.563,118.018,40.852,118.982,41.43,119.899z     M48.392,115.585l2.294,2.179v4.656c-0.538,0.302-1.046,0.548-1.522,0.73c-0.476,0.183-0.961,0.325-1.453,0.429    c-0.492,0.099-0.964,0.151-1.419,0.151c-0.683,0-1.367-0.127-2.054-0.385c-0.685-0.254-1.379-0.639-2.082-1.155    c-0.703-0.516-1.441-1.163-2.217-1.945c1.445,0.885,2.933,1.33,4.463,1.33c1.516,0,2.846-0.429,3.989-1.29V115.585z     M44.059,116.589h3.386v3.104L44.059,116.589z"/>
		<path class="st4" d="M51.561,121.249h1.024l1.655-4.116h5.406l1.014,2.441h-4.481l-1.576,4.156h-0.885L51.561,121.249z     M54.663,116.109l2.245-5.525l1.389,3.37l-0.788,2.155H54.663z M61.359,121.249h1.074l-5.545-13.146l3.407,2.759l5.426,12.868    h-1.29L61.359,121.249z"/>
		<path class="st4" d="M75.638,120.598c-0.091,0.02-0.212,0.032-0.363,0.032c-0.506,0-1.004-0.123-1.492-0.365    c-0.49-0.242-0.905-0.583-1.246-1.02c-0.341-0.437-0.558-0.917-0.649-1.441L75.638,120.598z M78.563,115.724    c1.044,0.762,1.812,1.492,2.304,2.195c0.492,0.703,0.738,1.457,0.738,2.258c0,0.627-0.161,1.219-0.482,1.766    c-0.321,0.548-0.77,0.984-1.344,1.306c-0.576,0.321-1.211,0.48-1.905,0.48c-0.867,0-1.754-0.278-2.659-0.837    c-0.907-0.556-1.842-1.393-2.806-2.508c0.959,0.794,1.975,1.191,3.052,1.191c0.538,0,1.046-0.091,1.522-0.278    c0.474-0.183,0.891-0.437,1.25-0.762c0.357-0.325,0.633-0.703,0.828-1.135c0.193-0.437,0.29-0.893,0.29-1.381    C79.351,117.133,79.089,116.367,78.563,115.724z M74.969,114.009c-0.762-0.171-1.336-0.445-1.719-0.83    c-0.385-0.385-0.576-0.861-0.576-1.433c0-0.46,0.139-0.897,0.419-1.31c0.278-0.413,0.657-0.742,1.137-0.984    c0.478-0.242,0.994-0.365,1.546-0.365c0.478,0,0.913,0.079,1.304,0.242c0.391,0.159,0.77,0.413,1.137,0.762l0.671-0.639    l2.155,2.274l-0.708,0.726c-0.538-0.452-1.01-0.782-1.413-0.992c-0.403-0.21-0.82-0.314-1.246-0.314    c-0.78,0-1.425,0.258-1.935,0.782C75.233,112.449,74.975,113.144,74.969,114.009z M78.523,117.764    c-0.165-0.191-0.355-0.321-0.572-0.397c-0.216-0.071-0.587-0.159-1.111-0.258c-0.526-0.103-0.953-0.214-1.28-0.341    c-0.454-0.159-0.913-0.472-1.379-0.945c-0.466-0.472-0.929-1.095-1.389-1.869c0.302,0.302,0.613,0.524,0.931,0.667    c0.32,0.147,0.671,0.258,1.06,0.337c0.387,0.079,0.754,0.147,1.101,0.206c0.5,0.083,0.927,0.222,1.28,0.417    c0.355,0.194,0.641,0.468,0.857,0.83C78.238,116.768,78.406,117.216,78.523,117.764z"/>
		<path class="st4" d="M84.215,121.249h1.07v-2.381l2.435,3.092v1.77h-1.207L84.215,121.249z"/>
		<path class="st4" d="M90.32,121.249v-6.176l2.699,4.306v4.35h-1.093l-2.677-2.481H90.32z M90.32,114.434v-5.001h1.31    c0.913,0,1.598,0.179,2.054,0.54s0.754,0.965,0.891,1.814c-0.302-0.079-0.591-0.119-0.867-0.119h-0.689v2.639    c-0.433,0.123-0.909,0.187-1.427,0.187C91.23,114.493,90.806,114.473,90.32,114.434z M95.362,121.249l-3.654-5.791h0.099    c0.768,0,1.439-0.139,2.012-0.413c0.576-0.274,1.018-0.659,1.33-1.151s0.468-1.056,0.468-1.687c0-1.068-0.443-2.008-1.33-2.814    c0.762,0.5,1.399,1.02,1.915,1.56c0.516,0.544,0.903,1.095,1.163,1.655c0.258,0.56,0.389,1.119,0.389,1.679    c0,0.822-0.214,1.52-0.641,2.104c-0.427,0.579-1.018,0.996-1.772,1.242l3.969,6.097h-1.941l-3.062-2.481H95.362z"/>
		<path class="st4" d="M100.711,121.249h1.07v-2.381l2.435,3.092v1.77h-1.207L100.711,121.249z"/>
		<path class="st4" d="M105.799,121.249h5.87v-0.984l2.62,2.56v0.905h-6.087L105.799,121.249z M106.813,120.264v-11.796l2.985,2.735    v9.062H106.813z"/>
	</g>
</g>
</svg>