<svg version="1.1" id="Layer_1" xmlns="http://www.w3.org/2000/svg" xmlns:xlink="http://www.w3.org/1999/xlink" x="0px" y="0px" viewBox="0 0 151.7 151.7" style="enable-background:new 0 0 151.7 151.7;" xml:space="preserve">
 <style type="text/css">
  .st0{fill:#FF7800;}
 </style>
 <g>
  <path class="st0" d="M65.1,18.9c9.7-6.7,23.1-3,28.1,7.6l44.3,93.6c8.9-12.3,14.1-27.4,14.3-43.7C152,34.5,118.3,0.3,76.4,0
		C34.5-0.3,0.3,33.4,0,75.3c-0.1,16.6,5.1,31.9,14,44.5l1.8-0.4l28.9-6.4c0.8-0.2,1.2,0.9,0.5,1.3l-23.9,14.2
		c13.7,14.1,32.8,23,54,23.2c23.8,0.2,45.1-10.6,59.1-27.6L62,47.9C53.9,39.3,55.4,25.6,65.1,18.9 M78.7,104.9l-46.6,4
		c-5,0.4-9.3-3.7-8.9-8.8c0.4-5.1,5.2-8.6,10.1-7.4l45.5,10.7C79.6,103.7,79.5,104.9,78.7,104.9 M57.1,63.9l56.5,45.7
		c0.6,0.5,0.1,1.5-0.7,1.3l-68-25.8c-7.1-2.7-10.1-11.1-6.4-17.8C42.4,60.8,51.2,59.2,57.1,63.9">
  </path>
 </g>
</svg>