<svg width="256" height="256" viewBox="0 0 256 256" fill="none" xmlns="http://www.w3.org/2000/svg">
<path d="M141.069 248.421L140.821 247.987L226.391 199.107L226.391 199.107C234.428 194.52 239.408 185.933 239.408 176.64V79.3199C239.408 70.0274 234.429 61.4802 226.391 56.8929L226.391 56.8928L140.821 8.01287L140.821 8.01283C132.862 3.46447 123.138 3.46447 115.179 8.01283L115.179 8.01287L29.6089 56.8928L29.6087 56.8929C21.5715 61.48 16.5917 70.0669 16.5917 79.3199V176.64C16.5917 185.932 21.5704 194.48 29.6089 199.107L141.069 248.421ZM141.069 248.421L140.821 247.987C132.862 252.536 123.138 252.536 115.179 247.987L114.931 248.421L115.179 247.987L29.6103 199.108L141.069 248.421Z" fill="url(#paint0_linear_2078_5271)" stroke="black"/>
<path d="M128 16C130.4 16 132.8 16.8 135.2 18L220.8 66.8C225.2 69.2 228 74 228 79.2V176.8C228 182 225.2 186.8 220.8 189.2L135.2 238C132.8 239.2 130.4 240 128 240C125.6 240 123.2 239.2 120.8 238L35.2 189.2C30.8 186.8 28 182 28 176.8V79.2C28 74 30.8 69.2 35.2 66.8L120.8 18C123.2 16.8 125.6 16 128 16ZM128 4C123.6 4 118.8 5.2 114.8 7.6L29.2 56.4C21.2 61.2 16 70 16 79.2V176.8C16 186.4 21.2 194.8 29.2 199.6L114.8 248.4C118.8 250.8 123.2 252 128 252C132.8 252 137.2 250.8 141.2 248.4L226.8 199.6C235.2 194.8 240 186 240 176.8V79.2C240 69.6 234.8 61.2 226.8 56.4L141.2 7.6C137.2 5.2 132.4 4 128 4Z" fill="black"/>
<path d="M96 176H114V68H96V176ZM172.4 96H150L123.2 131.6V140.4L150 176H172.4L140.8 136L172.4 96Z" fill="black"/>
<defs>
<linearGradient id="paint0_linear_2078_5271" x1="-52.8536" y1="185.8" x2="178.139" y2="-55.1164" gradientUnits="userSpaceOnUse">
<stop stop-color="#23D1AE"/>
<stop offset="1" stop-color="#7EFF33"/>
</linearGradient>
</defs>
</svg>
