<?xml version="1.0" standalone="no"?><!-- Generator: Gravit.io --><svg xmlns="http://www.w3.org/2000/svg" xmlns:xlink="http://www.w3.org/1999/xlink" style="isolation:isolate" viewBox="0 0 1460 400" width="1460" height="400"><defs><clipPath id="_clipPath_KtWNZKvAKK2HodA76F6IybiOYynU7XAC"><rect width="1460" height="400"/></clipPath></defs><g clip-path="url(#_clipPath_KtWNZKvAKK2HodA76F6IybiOYynU7XAC)"><g id="Logo"><path d=" M 175.969 106.661 C 178.157 107.074 194.51 117 197.668 118.829 L 234.392 139.932 C 241.698 144.16 248.9 148.587 256.279 152.683 L 256.338 184.32 L 216.186 184.317 L 216.126 175.88 C 202.952 167.984 189.489 160.471 176.178 152.802 C 163.121 161.014 149.433 168.238 136.124 176.029 L 136.147 222.073 C 142.014 225.792 148.208 229.158 154.231 232.624 C 161.505 236.811 168.756 241.131 176.165 245.072 C 181.469 242.349 186.621 239.131 191.785 236.145 L 216.151 222.062 L 216.172 213.815 L 256.25 213.829 L 256.232 245.435 C 253.126 247.45 249.724 249.168 246.503 251.012 L 230.198 260.452 L 176.295 291.606 C 165.238 285.471 154.377 278.932 143.393 272.663 C 127.635 263.488 111.64 254.678 96.001 245.304 L 95.984 213.936 C 82.815 214.122 69.629 213.918 56.459 213.938 L 56.423 268.293 Q 36.286 279.728 16.306 291.439 L 16.267 106.775 C 17.615 107.364 18.936 108.304 20.21 109.049 L 27.766 113.433 L 56.35 130.246 L 56.427 184.182 L 95.989 184.193 C 96.166 173.705 96.001 163.187 96.005 152.696 C 99.386 150.416 103.088 148.481 106.632 146.464 L 125.12 135.917 C 142.039 126.138 158.798 115.992 175.969 106.661 Z " fill="rgb(236,236,236)"/><path d=" M 298.456 268.426 Q 318.594 279.878 338.573 291.606 L 338.612 106.664 C 337.264 107.255 335.944 108.196 334.669 108.942 L 327.113 113.332 L 298.529 130.171 L 298.452 184.188 L 298.456 268.426 Z " fill="rgb(195,44,46)"/><path d=" M 175.769 14.458 C 176.732 14.488 177.934 15.334 178.783 15.801 C 183.41 18.347 187.93 21.113 192.517 23.737 Q 213.515 35.678 234.366 47.871 L 276.518 72.283 C 283.824 76.514 291.231 80.592 298.452 84.968 C 293.684 87.894 288.752 90.604 283.931 93.448 L 258.821 108.394 L 176.491 60.727 C 175.948 60.79 175.456 61.025 174.984 61.288 C 166.977 65.751 159.141 70.591 151.189 75.163 L 93.633 108.364 L 53.803 84.887 C 77.536 71.624 100.929 57.716 124.485 44.139 L 153.203 27.679 C 160.773 23.351 168.369 19.073 175.769 14.458 Z " fill="rgb(195,44,46)"/><path d=" M 175.769 385.542 C 176.732 385.511 177.934 384.666 178.783 384.199 C 183.41 381.653 187.93 378.887 192.517 376.263 Q 213.515 364.322 234.366 352.129 L 276.518 327.717 C 283.824 323.486 291.231 319.408 298.452 315.032 C 293.684 312.106 288.752 309.396 283.931 306.552 L 258.821 291.606 L 176.491 339.273 C 175.948 339.21 175.456 338.975 174.984 338.712 C 166.977 334.249 159.141 329.409 151.189 324.837 L 93.633 291.636 L 53.803 315.113 C 77.536 328.376 100.929 342.284 124.485 355.861 L 153.203 372.321 C 160.773 376.649 168.369 380.927 175.769 385.542 Z " fill="rgb(195,44,46)"/></g><g transform="matrix(0.065,0,0,0.045,102,432)"><text transform="matrix(1,0,0,1,0.412,1554.884)" style="font-family:&quot;Corbel&quot;;font-weight:400;font-size:2200px;font-style:normal;fill:#ffffff;stroke:none;">Soluciones IT</text></g><g transform="matrix(0.084,0,0,0.071,363,88.81)"><text transform="matrix(1,0,0,1,0.152,2584.766)" style="font-family:&quot;Bahnschrift&quot;;font-weight:400;font-size:2600px;font-style:normal;fill:#ffffff;stroke:none;">HEXACORE</text></g></g></svg>